<svg xmlns="http://www.w3.org/2000/svg" viewBox="0 0 24 24">
  <path d="M8 1L8 4L10 4L10 1L8 1 z M 12 2L12 4L14 4L14 2L12 2 z M 3.7792969 6L5.8574219 16.392578C6.0444219 17.323578 6.8693594 18 7.8183594 18L14.181641 18C15.130641 18 15.955578 17.323578 16.142578 16.392578L16.621094 14L18.5 14C19.412148 14 20.216908 13.370549 20.439453 12.486328L20.939453 10.486328C21.249091 9.2477785 20.276704 8 19 8L17.820312 8L18.220703 6L3.7792969 6 z M 17.419922 10L19 10L18.5 11.998047L18.5 12L17.021484 12L17.419922 10 z M 3 20L3 22L19 22L19 20L3 20 z" fill="#252525" />
</svg>