<?xml version="1.0" encoding="UTF-8"?>
<!DOCTYPE svg PUBLIC "-//W3C//DTD SVG 1.1//EN" "http://www.w3.org/Graphics/SVG/1.1/DTD/svg11.dtd">
<svg xmlns="http://www.w3.org/2000/svg" version="1.1" width="250px" height="143px" style="shape-rendering:geometricPrecision; text-rendering:geometricPrecision; image-rendering:optimizeQuality; fill-rule:evenodd; clip-rule:evenodd" xmlns:xlink="http://www.w3.org/1999/xlink">
<g><path style="opacity:0.259" fill="#30250c" d="M 131.5,2.5 C 126.381,1.8969 121.715,2.56356 117.5,4.5C 116.833,4.83333 116.167,5.16667 115.5,5.5C 115.5,4.5 115.5,3.5 115.5,2.5C 120.933,1.19792 126.266,1.19792 131.5,2.5 Z"/></g>
<g><path style="opacity:1" fill="#a37c27" d="M 152.5,24.5 C 155.625,25.1002 155.958,26.2669 153.5,28C 150.854,28.4974 148.187,28.6641 145.5,28.5C 138.646,26.9722 134.98,22.6389 134.5,15.5C 134.711,8.79327 138.044,4.6266 144.5,3C 150.167,2.75828 155.833,2.92495 161.5,3.5C 161.758,8.1251 161.758,12.6251 161.5,17C 161.167,17.1667 160.833,17.3333 160.5,17.5C 158.757,11.0444 154.757,8.37774 148.5,9.5C 144.19,15.9061 145.523,20.9061 152.5,24.5 Z"/></g>
<g><path style="opacity:1" fill="#ac8525" d="M 92.5,14.5 C 89.5693,14.0897 88.9026,12.7564 90.5,10.5C 88.8333,9.16667 87.1667,9.16667 85.5,10.5C 83.8624,11.7046 83.5291,13.0379 84.5,14.5C 83.2502,14.4226 82.4169,13.756 82,12.5C 80.3333,14.1667 78.6667,15.8333 77,17.5C 76.7351,19.1626 77.2351,20.6626 78.5,22C 77.7476,22.6708 77.4142,23.5041 77.5,24.5C 76.0702,21.0391 74.9035,17.3724 74,13.5C 72.9887,12.6634 71.8221,12.33 70.5,12.5C 70.5,11.5 70.5,10.5 70.5,9.5C 77.2959,7.75947 84.1292,6.0928 91,4.5C 95.5006,6.50016 97.0006,9.83349 95.5,14.5C 94.5224,14.0233 93.6891,13.3567 93,12.5C 92.5357,13.0944 92.369,13.7611 92.5,14.5 Z M 85.5,10.5 C 87.8418,11.2107 88.1751,12.544 86.5,14.5C 85.8333,14.5 85.1667,14.5 84.5,14.5C 83.5291,13.0379 83.8624,11.7046 85.5,10.5 Z"/></g>
<g><path style="opacity:0.388" fill="#3c2f10" d="M 102.5,5.5 C 104.43,9.37267 105.097,13.706 104.5,18.5C 103.78,14.2703 103.113,9.937 102.5,5.5 Z"/></g>
<g><path style="opacity:0.012" fill="#1e1709" d="M 181.5,9.5 C 183.552,10.0527 183.885,11.0527 182.5,12.5C 182.443,11.391 182.11,10.391 181.5,9.5 Z"/></g>
<g><path style="opacity:0.81" fill="#9a762a" d="M 181.5,9.5 C 182.11,10.391 182.443,11.391 182.5,12.5C 180.833,13.5 179.5,14.8333 178.5,16.5C 177.957,16.56 177.624,16.8933 177.5,17.5C 178.167,18.1667 178.833,18.8333 179.5,19.5C 178.007,20.1411 177.007,21.1411 176.5,22.5C 174.123,25.3841 171.456,28.2175 168.5,31C 166.866,31.4935 165.199,31.6602 163.5,31.5C 163.433,30.0413 163.766,28.7079 164.5,27.5C 167.201,20.7343 168.867,13.7343 169.5,6.5C 173.619,7.09658 177.619,8.09658 181.5,9.5 Z"/></g>
<g><path style="opacity:0.043" fill="#261e0d" d="M 62.5,12.5 C 63.7082,11.218 65.0416,11.218 66.5,12.5C 66.3764,13.1067 66.0431,13.44 65.5,13.5C 64.791,12.596 63.791,12.2627 62.5,12.5 Z"/></g>
<g><path style="opacity:0.537" fill="#3f3110" d="M 85.5,10.5 C 87.1667,9.16667 88.8333,9.16667 90.5,10.5C 89.1667,11.8333 87.8333,13.1667 86.5,14.5C 88.1751,12.544 87.8418,11.2107 85.5,10.5 Z"/></g>
<g><path style="opacity:1" fill="#bb9126" d="M 62.5,12.5 C 63.791,12.2627 64.791,12.596 65.5,13.5C 67.4378,19.6456 69.7711,25.6456 72.5,31.5C 73.8333,32.1667 75.1667,32.8333 76.5,33.5C 75.7515,34.531 75.0848,35.6976 74.5,37C 72.6183,37.1981 70.9516,37.6981 69.5,38.5C 67.1667,39.1667 64.8333,39.8333 62.5,40.5C 61.6236,40.6309 60.9569,40.2975 60.5,39.5C 61.1799,38.1401 61.8466,36.8068 62.5,35.5C 62.6107,34.8826 62.944,34.3826 63.5,34C 61.1964,29.2168 58.5297,24.7168 55.5,20.5C 54.914,20.7093 54.414,21.0426 54,21.5C 53.5008,26.1548 53.3342,30.8215 53.5,35.5C 51.9826,35.5106 50.8159,36.1772 50,37.5C 49.7216,36.5842 49.2216,35.9175 48.5,35.5C 48.3356,29.6826 48.3356,24.0159 48.5,18.5C 52.8662,15.9884 57.5329,13.9884 62.5,12.5 Z M 62.5,35.5 C 60.772,36.379 58.9386,37.0457 57,37.5C 55.5657,37.1382 54.3991,36.4715 53.5,35.5C 53.3342,30.8215 53.5008,26.1548 54,21.5C 54.414,21.0426 54.914,20.7093 55.5,20.5C 58.5297,24.7168 61.1964,29.2168 63.5,34C 62.944,34.3826 62.6107,34.8826 62.5,35.5 Z"/></g>
<g><path style="opacity:0.98" fill="#c4972a" d="M 115.5,2.5 C 115.5,3.5 115.5,4.5 115.5,5.5C 115.167,5.5 114.833,5.5 114.5,5.5C 113.566,6.56764 113.232,7.90097 113.5,9.5C 115.735,9.79472 117.735,9.46138 119.5,8.5C 119.5,7.83333 119.5,7.16667 119.5,6.5C 118.913,5.23338 118.913,4.23338 119.5,3.5C 121.833,3.66667 124.167,3.83333 126.5,4C 123.629,6.7028 120.962,9.53613 118.5,12.5C 117.167,12.5 115.833,12.5 114.5,12.5C 114.183,16.7016 114.517,20.7016 115.5,24.5C 117.382,25.221 117.715,26.221 116.5,27.5C 111.706,28.0969 107.373,27.4302 103.5,25.5C 104.369,23.283 104.702,20.9496 104.5,18.5C 105.097,13.706 104.43,9.37267 102.5,5.5C 101.596,4.79105 101.263,3.79105 101.5,2.5C 106.167,2.5 110.833,2.5 115.5,2.5 Z M 117.5,4.5 C 117.833,5.5 118.5,6.16667 119.5,6.5C 119.5,7.16667 119.5,7.83333 119.5,8.5C 117.833,8.5 116.167,8.5 114.5,8.5C 114.5,7.5 114.5,6.5 114.5,5.5C 114.833,5.5 115.167,5.5 115.5,5.5C 116.167,5.16667 116.833,4.83333 117.5,4.5 Z"/></g>
<g><path style="opacity:0.49" fill="#604a15" d="M 114.5,5.5 C 114.5,6.5 114.5,7.5 114.5,8.5C 116.167,8.5 117.833,8.5 119.5,8.5C 117.735,9.46138 115.735,9.79472 113.5,9.5C 113.232,7.90097 113.566,6.56764 114.5,5.5 Z"/></g>
<g><path style="opacity:0.145" fill="#34280d" d="M 118.5,12.5 C 119.794,14.0478 120.461,16.0478 120.5,18.5C 120.495,20.6965 120.162,22.6965 119.5,24.5C 119.5,20.8333 119.5,17.1667 119.5,13.5C 118.167,13.5 116.833,13.5 115.5,13.5C 115.5,17.1667 115.5,20.8333 115.5,24.5C 114.517,20.7016 114.183,16.7016 114.5,12.5C 115.833,12.5 117.167,12.5 118.5,12.5 Z"/></g>
<g><path style="opacity:0.992" fill="#cfa02b" d="M 90.5,10.5 C 88.9026,12.7564 89.5693,14.0897 92.5,14.5C 92.5858,15.4959 92.2524,16.3292 91.5,17C 83.5887,15.901 81.9221,18.5676 86.5,25C 86,25.5 85.5,26 85,26.5C 83,26.5 81,26.5 79,26.5C 78.7216,25.5842 78.2216,24.9175 77.5,24.5C 77.4142,23.5041 77.7476,22.6708 78.5,22C 77.2351,20.6626 76.7351,19.1626 77,17.5C 78.6667,15.8333 80.3333,14.1667 82,12.5C 82.4169,13.756 83.2502,14.4226 84.5,14.5C 85.1667,14.5 85.8333,14.5 86.5,14.5C 87.8333,13.1667 89.1667,11.8333 90.5,10.5 Z"/></g>
<g><path style="opacity:1" fill="#b28728" d="M 131.5,2.5 C 130.076,4.72477 129.409,7.22477 129.5,10C 129.871,14.8766 130.538,19.7099 131.5,24.5C 132.287,25.2421 132.953,26.0754 133.5,27C 128.511,27.4993 123.511,27.6659 118.5,27.5C 118.263,26.209 118.596,25.209 119.5,24.5C 120.162,22.6965 120.495,20.6965 120.5,18.5C 120.461,16.0478 119.794,14.0478 118.5,12.5C 120.962,9.53613 123.629,6.7028 126.5,4C 124.167,3.83333 121.833,3.66667 119.5,3.5C 118.913,4.23338 118.913,5.23338 119.5,6.5C 118.5,6.16667 117.833,5.5 117.5,4.5C 121.715,2.56356 126.381,1.8969 131.5,2.5 Z"/></g>
<g><path style="opacity:0.814" fill="#816221" d="M 145.5,28.5 C 148.187,28.6641 150.854,28.4974 153.5,28C 155.958,26.2669 155.625,25.1002 152.5,24.5C 155.599,24.9077 157.933,23.741 159.5,21C 160.448,20.5172 161.448,20.3505 162.5,20.5C 162.614,24.5545 161.114,27.8879 158,30.5C 153.684,29.9198 149.517,29.2531 145.5,28.5 Z"/></g>
<g><path style="opacity:0.814" fill="#9b7e3b" d="M 211.5,22.5 C 211.5,23.5 211.5,24.5 211.5,25.5C 209.938,25.7329 208.605,26.3995 207.5,27.5C 207.483,25.9719 206.816,25.4719 205.5,26C 200.833,30.6667 196.167,35.3333 191.5,40C 192.275,41.2295 193.275,41.5628 194.5,41C 197.775,38.2965 200.108,35.4632 201.5,32.5C 203.384,33.1147 204.384,34.448 204.5,36.5C 204.48,37.7261 204.147,38.7261 203.5,39.5C 203.66,37.8008 203.494,36.1341 203,34.5C 200.51,37.4651 199.176,40.7984 199,44.5C 200.011,43.6634 201.178,43.33 202.5,43.5C 202.61,45.0982 202.943,46.7648 203.5,48.5C 197.727,46.1118 192.393,42.9452 187.5,39C 186.663,37.9887 186.33,36.8221 186.5,35.5C 187.978,35.762 189.311,35.4287 190.5,34.5C 194.751,29.1616 198.084,23.3283 200.5,17C 204.326,18.2462 207.993,20.0796 211.5,22.5 Z"/></g>
<g><path style="opacity:0.969" fill="#b98e28" d="M 100.5,24.5 C 99.5489,25.9187 99.2155,27.5853 99.5,29.5C 98.1779,29.67 97.0113,29.3366 96,28.5C 95.1627,30.0074 93.9961,30.5074 92.5,30C 93.2666,28.5295 93.9332,27.0295 94.5,25.5C 96.3122,23.5395 97.3122,21.2061 97.5,18.5C 98.5,18.5 99.5,18.5 100.5,18.5C 100.5,20.5 100.5,22.5 100.5,24.5 Z"/></g>
<g><path style="opacity:0.071" fill="#1b170e" d="M 211.5,22.5 C 212.5,22.8333 213.167,23.5 213.5,24.5C 212.596,25.209 212.263,26.209 212.5,27.5C 211.662,27.1583 211.328,26.4916 211.5,25.5C 211.5,24.5 211.5,23.5 211.5,22.5 Z"/></g>
<g><path style="opacity:0.667" fill="#675017" d="M 48.5,18.5 C 48.3356,24.0159 48.3356,29.6826 48.5,35.5C 47.6753,31.3528 47.1753,27.0195 47,22.5C 45.4128,20.6407 45.9128,19.3074 48.5,18.5 Z"/></g>
<g><path style="opacity:0.771" fill="#968551" d="M 249.5,27.5 C 249.5,28.5 249.5,29.5 249.5,30.5C 245.474,39.2736 239.641,40.607 232,34.5C 228.635,26.2274 231.302,21.2274 240,19.5C 245.175,19.9775 248.342,22.6442 249.5,27.5 Z M 234.5,25.5 C 235.833,27.8333 235.833,30.1667 234.5,32.5C 233.167,30.1667 233.167,27.8333 234.5,25.5 Z M 243.5,24.5 C 244.117,24.6107 244.617,24.944 245,25.5C 245.667,27.8333 245.667,30.1667 245,32.5C 243.625,30.0632 243.125,27.3965 243.5,24.5 Z M 243.5,24.5 C 243.167,24.5 242.833,24.5 242.5,24.5C 240.5,24.5 238.5,24.5 236.5,24.5C 236.167,24.5 235.833,24.5 235.5,24.5C 238.167,21.8333 240.833,21.8333 243.5,24.5 Z M 240.5,26.5 C 240.167,27.1667 239.833,27.8333 239.5,28.5C 238.243,27.3774 238.576,26.7107 240.5,26.5 Z M 238.5,30.5 C 240.048,30.8212 240.715,31.8212 240.5,33.5C 241.552,33.3505 242.552,33.5172 243.5,34C 241.655,35.128 239.655,35.628 237.5,35.5C 237.833,34.8333 238.167,34.1667 238.5,33.5C 238.5,32.5 238.5,31.5 238.5,30.5 Z"/></g>
<g><path style="opacity:0.106" fill="#15120b" d="M 234.5,25.5 C 234.5,24.8333 234.833,24.5 235.5,24.5C 235.833,24.5 236.167,24.5 236.5,24.5C 235.945,28.0122 236.612,31.0122 238.5,33.5C 238.167,34.1667 237.833,34.8333 237.5,35.5C 236.167,34.8333 235.167,33.8333 234.5,32.5C 235.833,30.1667 235.833,27.8333 234.5,25.5 Z"/></g>
<g><path style="opacity:0.447" fill="#3a2d0f" d="M 103.5,25.5 C 107.373,27.4302 111.706,28.0969 116.5,27.5C 112.03,28.4861 107.363,28.8195 102.5,28.5C 102.263,27.209 102.596,26.209 103.5,25.5 Z"/></g>
<g><path style="opacity:0.883" fill="#b4964b" d="M 213.5,24.5 C 215.411,25.075 217.078,26.075 218.5,27.5C 218.241,31.0681 216.241,32.4015 212.5,31.5C 212.5,35.8333 212.5,40.1667 212.5,44.5C 212.5,44.8333 212.5,45.1667 212.5,45.5C 210.246,46.4151 208.246,47.7484 206.5,49.5C 205.583,48.8728 204.583,48.5394 203.5,48.5C 202.943,46.7648 202.61,45.0982 202.5,43.5C 202.433,42.0413 202.766,40.7079 203.5,39.5C 204.147,38.7261 204.48,37.7261 204.5,36.5C 204.384,34.448 203.384,33.1147 201.5,32.5C 200.108,35.4632 197.775,38.2965 194.5,41C 193.275,41.5628 192.275,41.2295 191.5,40C 196.167,35.3333 200.833,30.6667 205.5,26C 206.816,25.4719 207.483,25.9719 207.5,27.5C 209.167,28.8333 210.833,28.8333 212.5,27.5C 212.263,26.209 212.596,25.209 213.5,24.5 Z M 211.5,25.5 C 211.328,26.4916 211.662,27.1583 212.5,27.5C 210.833,28.8333 209.167,28.8333 207.5,27.5C 208.605,26.3995 209.938,25.7329 211.5,25.5 Z"/></g>
<g><path style="opacity:0.933" fill="#a68025" d="M 92.5,14.5 C 94.2727,16.6002 94.606,18.9335 93.5,21.5C 91.3379,19.9802 89.0046,18.9802 86.5,18.5C 86.2637,21.8294 87.097,24.8294 89,27.5C 90.7255,26.536 92.5588,25.8693 94.5,25.5C 93.9332,27.0295 93.2666,28.5295 92.5,30C 93.9961,30.5074 95.1627,30.0074 96,28.5C 97.0113,29.3366 98.1779,29.67 99.5,29.5C 99.2155,27.5853 99.5489,25.9187 100.5,24.5C 100.5,26.5 100.5,28.5 100.5,30.5C 93.0142,31.2971 85.6809,32.7971 78.5,35C 81.7892,36.9586 82.1225,39.1252 79.5,41.5C 76.5021,39.3318 73.1687,38.3318 69.5,38.5C 70.9516,37.6981 72.6183,37.1981 74.5,37C 75.0848,35.6976 75.7515,34.531 76.5,33.5C 77.3382,33.1583 77.6716,32.4916 77.5,31.5C 78.1032,29.3743 78.1032,27.0409 77.5,24.5C 78.2216,24.9175 78.7216,25.5842 79,26.5C 81,26.5 83,26.5 85,26.5C 85.5,26 86,25.5 86.5,25C 81.9221,18.5676 83.5887,15.901 91.5,17C 92.2524,16.3292 92.5858,15.4959 92.5,14.5 Z"/></g>
<g><path style="opacity:0.792" fill="#b29c5d" d="M 236.5,24.5 C 238.5,24.5 240.5,24.5 242.5,24.5C 242.5,25.8333 241.833,26.5 240.5,26.5C 238.576,26.7107 238.243,27.3774 239.5,28.5C 240.239,28.369 240.906,28.5357 241.5,29C 240.263,29.2321 239.263,29.7321 238.5,30.5C 238.5,31.5 238.5,32.5 238.5,33.5C 236.612,31.0122 235.945,28.0122 236.5,24.5 Z"/></g>
<g><path style="opacity:0.809" fill="#796636" d="M 218.5,27.5 C 221.017,28.8927 222.684,30.8927 223.5,33.5C 220.193,32.9492 216.86,32.6159 213.5,32.5C 213.817,36.7016 213.483,40.7016 212.5,44.5C 212.5,40.1667 212.5,35.8333 212.5,31.5C 216.241,32.4015 218.241,31.0681 218.5,27.5 Z"/></g>
<g><path style="opacity:0.004" fill="#191304" d="M 72.5,31.5 C 74.1667,31.5 75.8333,31.5 77.5,31.5C 77.6716,32.4916 77.3382,33.1583 76.5,33.5C 75.1667,32.8333 73.8333,32.1667 72.5,31.5 Z"/></g>
<g><path style="opacity:0.808" fill="#977730" d="M 178.5,16.5 C 184.466,18.633 188.132,22.7997 189.5,29C 189.16,31.5113 188.16,33.678 186.5,35.5C 185.07,35.4208 183.736,35.7542 182.5,36.5C 175.918,34.6964 169.251,33.1964 162.5,32C 160.944,29.499 161.611,27.999 164.5,27.5C 163.766,28.7079 163.433,30.0413 163.5,31.5C 165.199,31.6602 166.866,31.4935 168.5,31C 171.456,28.2175 174.123,25.3841 176.5,22.5C 177.007,21.1411 178.007,20.1411 179.5,19.5C 178.833,18.8333 178.167,18.1667 177.5,17.5C 177.624,16.8933 177.957,16.56 178.5,16.5 Z M 176.5,22.5 C 178.359,22.4609 179.692,23.2942 180.5,25C 179.587,27.3326 178.087,29.1659 176,30.5C 175.5,30 175,29.5 174.5,29C 175.669,26.9935 176.335,24.8268 176.5,22.5 Z"/></g>
<g><path style="opacity:0.98" fill="#c19726" d="M 46.5,43.5 C 44.4309,46.5725 41.7642,48.9059 38.5,50.5C 35.112,46.7514 31.9454,42.7514 29,38.5C 27.4002,37.1341 25.5668,36.1341 23.5,35.5C 26.8514,32.1518 30.5181,29.1518 34.5,26.5C 35.3333,28.5 36.1667,30.5 37,32.5C 40.7501,35.7438 43.9168,39.4105 46.5,43.5 Z"/></g>
<g><path style="opacity:0.81" fill="#896a26" d="M 123.5,53.5 C 123.034,51.7988 123.034,50.2988 123.5,49C 122.906,48.5357 122.239,48.369 121.5,48.5C 121.5,48.1667 121.5,47.8333 121.5,47.5C 122.391,46.8902 123.391,46.5569 124.5,46.5C 124.5,47.1667 124.833,47.5 125.5,47.5C 130.035,46.8632 134.368,45.8632 138.5,44.5C 138.414,43.5041 138.748,42.6708 139.5,42C 137.19,41.5034 134.857,41.3367 132.5,41.5C 140.057,40.5858 147.724,39.4191 155.5,38C 158.206,37.3992 160.206,35.8992 161.5,33.5C 163.184,38.2959 161.517,41.4625 156.5,43C 148.16,46.332 139.494,48.6654 130.5,50C 127.861,50.6529 125.527,51.8196 123.5,53.5 Z"/></g>
<g><path style="opacity:1" fill="#a77e28" d="M 132.5,41.5 C 134.857,41.3367 137.19,41.5034 139.5,42C 138.748,42.6708 138.414,43.5041 138.5,44.5C 134.048,44.6314 129.714,45.298 125.5,46.5C 125.167,46.5 124.833,46.5 124.5,46.5C 123.391,46.5569 122.391,46.8902 121.5,47.5C 120.167,47.8333 120.167,48.1667 121.5,48.5C 122.239,48.369 122.906,48.5357 123.5,49C 123.034,50.2988 123.034,51.7988 123.5,53.5C 123.167,54.1667 122.833,54.8333 122.5,55.5C 121.776,59.3653 121.109,63.3653 120.5,67.5C 121.433,68.9847 121.1,70.3181 119.5,71.5C 113.327,71.7566 113.161,70.4233 119,67.5C 119.826,64.7884 119.326,62.4551 117.5,60.5C 117.244,56.7307 117.577,53.0641 118.5,49.5C 119.833,49.1667 119.833,48.8333 118.5,48.5C 117.542,48.9528 116.708,49.6195 116,50.5C 115.503,53.146 115.336,55.8127 115.5,58.5C 115.539,59.7562 115.039,60.7562 114,61.5C 113.583,60.244 112.75,59.5774 111.5,59.5C 107.343,54.2237 108.01,49.3904 113.5,45C 119.51,42.1316 125.843,40.9649 132.5,41.5 Z"/></g>
<g><path style="opacity:1" fill="#a17d23" d="M 48.5,35.5 C 49.2216,35.9175 49.7216,36.5842 50,37.5C 50.8159,36.1772 51.9826,35.5106 53.5,35.5C 54.3991,36.4715 55.5657,37.1382 57,37.5C 58.9386,37.0457 60.772,36.379 62.5,35.5C 61.8466,36.8068 61.1799,38.1401 60.5,39.5C 60.9569,40.2975 61.6236,40.6309 62.5,40.5C 59.2745,42.2131 56.4412,44.5464 54,47.5C 53.5045,49.4727 53.3379,51.4727 53.5,53.5C 52.1667,53.5 50.8333,53.5 49.5,53.5C 49.7852,51.712 49.4519,50.0453 48.5,48.5C 45.3983,51.044 42.065,53.044 38.5,54.5C 38.5,53.1667 38.5,51.8333 38.5,50.5C 41.7642,48.9059 44.4309,46.5725 46.5,43.5C 48.2702,44.3855 49.2702,43.5521 49.5,41C 48.7665,39.2341 48.4332,37.4008 48.5,35.5 Z"/></g>
<g><path style="opacity:0.933" fill="#c99e27" d="M 15.5,43.5 C 18.2465,43.9276 19.9132,45.5943 20.5,48.5C 19.6509,50.5101 20.3176,52.1767 22.5,53.5C 21.6431,54.4252 20.6431,55.0919 19.5,55.5C 18.2921,54.7659 16.9587,54.4326 15.5,54.5C 14.6146,50.63 13.2813,50.63 11.5,54.5C 11.6236,55.1067 11.9569,55.44 12.5,55.5C 12.5,55.8333 12.5,56.1667 12.5,56.5C 9.85989,56.5266 7.19322,56.5266 4.5,56.5C 6.39667,53.053 8.56334,49.7196 11,46.5C 12.129,44.8588 13.629,43.8588 15.5,43.5 Z"/></g>
<g><path style="opacity:0.318" fill="#3c2e11" d="M 138.5,44.5 C 134.368,45.8632 130.035,46.8632 125.5,47.5C 125.5,47.1667 125.5,46.8333 125.5,46.5C 129.714,45.298 134.048,44.6314 138.5,44.5 Z"/></g>
<g><path style="opacity:0.892" fill="#a18d53" d="M 212.5,45.5 C 212.167,47.5 211.833,49.5 211.5,51.5C 220.264,50.1433 228.931,48.1433 237.5,45.5C 239.715,45.9164 241.049,47.2497 241.5,49.5C 238.098,52.2327 234.431,54.566 230.5,56.5C 230.649,57.552 230.483,58.552 230,59.5C 226.912,62.0814 224.412,65.0814 222.5,68.5C 220.273,67.5994 219.273,65.9328 219.5,63.5C 224.924,62.9828 226.424,60.3161 224,55.5C 221.093,56.2438 218.927,57.9105 217.5,60.5C 213.083,56.0735 208.416,52.0735 203.5,48.5C 204.583,48.5394 205.583,48.8728 206.5,49.5C 208.246,47.7484 210.246,46.4151 212.5,45.5 Z M 230.5,56.5 C 227.824,53.9403 228.491,52.7737 232.5,53C 231.177,53.8159 230.511,54.9826 230.5,56.5 Z"/></g>
<g><path style="opacity:0.892" fill="#cbb670" d="M 241.5,49.5 C 243.106,52.7921 242.106,54.9588 238.5,56C 234.868,60.6337 230.868,64.967 226.5,69C 225.552,69.4828 224.552,69.6495 223.5,69.5C 222.833,69.5 222.5,69.1667 222.5,68.5C 224.412,65.0814 226.912,62.0814 230,59.5C 230.483,58.552 230.649,57.552 230.5,56.5C 234.431,54.566 238.098,52.2327 241.5,49.5 Z"/></g>
<g><path style="opacity:0.98" fill="#be9527" d="M 15.5,43.5 C 16.6009,42.4017 17.9343,42.235 19.5,43C 20.9278,44.9162 21.9278,47.0829 22.5,49.5C 25.5308,48.175 28.5308,48.175 31.5,49.5C 31.427,51.0269 32.0937,52.0269 33.5,52.5C 33.5,54.8333 33.5,57.1667 33.5,59.5C 30.9616,60.0427 28.6282,61.0427 26.5,62.5C 26.4178,57.6283 24.0845,55.9617 19.5,57.5C 19.5,56.8333 19.5,56.1667 19.5,55.5C 20.6431,55.0919 21.6431,54.4252 22.5,53.5C 20.3176,52.1767 19.6509,50.5101 20.5,48.5C 19.9132,45.5943 18.2465,43.9276 15.5,43.5 Z"/></g>
<g><path style="opacity:0.412" fill="#4a3913" d="M 31.5,49.5 C 32.9063,49.9731 33.573,50.9731 33.5,52.5C 32.0937,52.0269 31.427,51.0269 31.5,49.5 Z"/></g>
<g><path style="opacity:0.81" fill="#9f8f5a" d="M 241.5,49.5 C 246.766,52.5753 246.599,55.242 241,57.5C 238.578,61.3438 235.911,65.0105 233,68.5C 231.097,70.441 230.264,72.7743 230.5,75.5C 226.967,74.9709 224.633,72.9709 223.5,69.5C 224.552,69.6495 225.552,69.4828 226.5,69C 230.868,64.967 234.868,60.6337 238.5,56C 242.106,54.9588 243.106,52.7921 241.5,49.5 Z"/></g>
<g><path style="opacity:0.341" fill="#3d2f11" d="M 118.5,48.5 C 118.5,48.8333 118.5,49.1667 118.5,49.5C 117.577,53.0641 117.244,56.7307 117.5,60.5C 116.833,59.8333 116.167,59.1667 115.5,58.5C 115.336,55.8127 115.503,53.146 116,50.5C 116.708,49.6195 117.542,48.9528 118.5,48.5 Z"/></g>
<g><path style="opacity:0.98" fill="#c99d28" d="M 15.5,54.5 C 16.9587,54.4326 18.2921,54.7659 19.5,55.5C 19.5,56.1667 19.5,56.8333 19.5,57.5C 19.774,59.9806 21.1073,61.6473 23.5,62.5C 23.5774,63.7498 24.244,64.5831 25.5,65C 23.8333,66.6667 22.1667,68.3333 20.5,70C 19.1807,70.195 17.8474,70.0283 16.5,69.5C 12.7375,67.5873 9.07087,65.4206 5.5,63C 4.20677,62.51 2.87344,62.3433 1.5,62.5C 1.02458,59.6874 2.02458,57.6874 4.5,56.5C 7.19322,56.5266 9.85989,56.5266 12.5,56.5C 13.5,57.8333 14.5,57.8333 15.5,56.5C 15.5,55.8333 15.5,55.1667 15.5,54.5 Z"/></g>
<g><path style="opacity:0.804" fill="#574517" d="M 12.5,55.5 C 13.391,56.1098 14.391,56.4431 15.5,56.5C 14.5,57.8333 13.5,57.8333 12.5,56.5C 12.5,56.1667 12.5,55.8333 12.5,55.5 Z"/></g>
<g><path style="opacity:1" fill="#9c7922" d="M 33.5,52.5 C 34.8508,55.7723 34.6841,59.1056 33,62.5C 29.9465,65.8866 27.2798,69.5533 25,73.5C 23.8904,75.0368 22.3904,75.7035 20.5,75.5C 19.797,73.1274 18.4637,71.1274 16.5,69.5C 17.8474,70.0283 19.1807,70.195 20.5,70C 22.1667,68.3333 23.8333,66.6667 25.5,65C 24.244,64.5831 23.5774,63.7498 23.5,62.5C 24.5,62.5 25.5,62.5 26.5,62.5C 28.6282,61.0427 30.9616,60.0427 33.5,59.5C 33.5,57.1667 33.5,54.8333 33.5,52.5 Z"/></g>
<g><path style="opacity:0.814" fill="#916e24" d="M 115.5,58.5 C 116.167,59.1667 116.833,59.8333 117.5,60.5C 119.326,62.4551 119.826,64.7884 119,67.5C 113.161,70.4233 113.327,71.7566 119.5,71.5C 118.726,72.1471 117.726,72.4805 116.5,72.5C 112.114,71.7426 107.781,71.2426 103.5,71C 106.186,73.5463 107.186,76.713 106.5,80.5C 104.833,80.5 103.167,80.5 101.5,80.5C 101.832,73.9953 99.1649,69.162 93.5,66C 101.199,65.9586 108.866,66.2919 116.5,67C 114.585,64.6004 112.919,62.1004 111.5,59.5C 112.75,59.5774 113.583,60.244 114,61.5C 115.039,60.7562 115.539,59.7562 115.5,58.5 Z"/></g>
<g><path style="opacity:0.89" fill="#90712c" d="M 122.5,55.5 C 122.176,59.5546 122.509,63.5546 123.5,67.5C 130.499,66.4007 137.499,65.5674 144.5,65C 140.394,69.0467 137.727,73.8801 136.5,79.5C 135.167,79.5 133.833,79.5 132.5,79.5C 132.292,77.0799 132.626,74.7466 133.5,72.5C 128.88,71.5067 124.214,71.1734 119.5,71.5C 121.1,70.3181 121.433,68.9847 120.5,67.5C 121.109,63.3653 121.776,59.3653 122.5,55.5 Z"/></g>
<g><path style="opacity:0.814" fill="#977326" d="M 92.5,85.5 C 94.8333,85.5 97.1667,85.5 99.5,85.5C 96.0371,89.4643 92.3705,93.2977 88.5,97C 88.8333,97.3333 89.1667,97.6667 89.5,98C 86.2975,101.371 82.9641,104.538 79.5,107.5C 81.2966,102.113 83.2966,96.7795 85.5,91.5C 83.8955,89.8211 83.2289,87.8211 83.5,85.5C 86.5,85.5 89.5,85.5 92.5,85.5 Z"/></g>
<g><path style="opacity:0.832" fill="#a27d2e" d="M 99.5,85.5 C 102.833,85.5 106.167,85.5 109.5,85.5C 109.5,87.1667 109.5,88.8333 109.5,90.5C 109.167,90.5 108.833,90.5 108.5,90.5C 104.259,96.4124 99.2587,101.746 93.5,106.5C 92.596,105.791 92.2627,104.791 92.5,103.5C 91.8333,100.833 91.1667,100.833 90.5,103.5C 90.1489,106.238 89.4822,108.904 88.5,111.5C 90.6079,112.944 92.9412,113.61 95.5,113.5C 93.369,114.314 91.0356,114.814 88.5,115C 86.8333,116.667 85.1667,118.333 83.5,120C 84.056,120.383 84.3893,120.883 84.5,121.5C 84.7373,122.791 84.404,123.791 83.5,124.5C 83.728,122.645 83.0613,121.812 81.5,122C 76.2299,127.452 71.2299,132.286 66.5,136.5C 71.0438,126.845 75.3772,117.178 79.5,107.5C 82.9641,104.538 86.2975,101.371 89.5,98C 89.1667,97.6667 88.8333,97.3333 88.5,97C 92.3705,93.2977 96.0371,89.4643 99.5,85.5 Z"/></g>
<g><path style="opacity:0.81" fill="#ad9049" d="M 154.5,85.5 C 157.167,85.5 159.833,85.5 162.5,85.5C 162.611,86.1174 162.944,86.6174 163.5,87C 161.833,88.6667 160.167,90.3333 158.5,92C 159.056,92.3826 159.389,92.8826 159.5,93.5C 156.751,93.2739 154.084,93.6072 151.5,94.5C 150.511,98.1073 150.177,101.774 150.5,105.5C 149.679,102.359 149.179,99.0252 149,95.5C 143.667,100.833 138.333,106.167 133,111.5C 132.503,113.81 132.337,116.143 132.5,118.5C 132.167,118.5 131.833,118.5 131.5,118.5C 131.5,114.5 131.5,110.5 131.5,106.5C 132.117,106.611 132.617,106.944 133,107.5C 140.369,100.298 147.536,92.9649 154.5,85.5 Z"/></g>
<g><path style="opacity:1" fill="#9a7721" d="M 20.5,85.5 C 19.6993,87.5084 18.366,88.0084 16.5,87C 14.316,89.0165 12.316,91.1831 10.5,93.5C 10.875,98.4396 10.875,103.773 10.5,109.5C 10.5,111.5 10.5,113.5 10.5,115.5C 10.5,116.5 10.5,117.5 10.5,118.5C 10.5,120.833 10.5,123.167 10.5,125.5C 9.66952,114.674 9.16952,103.674 9,92.5C 6.29844,90.9575 5.13178,88.6241 5.5,85.5C 10.5,85.5 15.5,85.5 20.5,85.5 Z"/></g>
<g><path style="opacity:1" fill="#cc9d2b" d="M 20.5,85.5 C 22.5,85.5 24.5,85.5 26.5,85.5C 24.8843,87.4158 25.2177,88.9158 27.5,90C 23.1667,94.3333 18.8333,98.6667 14.5,103C 15.1667,103.333 15.8333,103.667 16.5,104C 14.6298,106.04 12.6298,107.873 10.5,109.5C 10.875,103.773 10.875,98.4396 10.5,93.5C 12.316,91.1831 14.316,89.0165 16.5,87C 18.366,88.0084 19.6993,87.5084 20.5,85.5 Z"/></g>
<g><path style="opacity:0.063" fill="#110d03" d="M 62.5,85.5 C 63.1386,86.0968 63.472,86.9302 63.5,88C 63.3158,89.3756 62.6491,90.2089 61.5,90.5C 62.6491,90.2089 63.3158,89.3756 63.5,88C 63.472,86.9302 63.1386,86.0968 62.5,85.5 Z"/></g>
<g><path style="opacity:0.325" fill="#362a10" d="M 92.5,85.5 C 98.31,84.5104 104.31,84.1771 110.5,84.5C 110.795,86.7354 110.461,88.7354 109.5,90.5C 109.5,88.8333 109.5,87.1667 109.5,85.5C 106.167,85.5 102.833,85.5 99.5,85.5C 97.1667,85.5 94.8333,85.5 92.5,85.5 Z"/></g>
<g><path style="opacity:0.88" fill="#a6873e" d="M 148.5,85.5 C 142.463,91.5354 136.796,97.8687 131.5,104.5C 130.676,100.688 130.176,96.6877 130,92.5C 127.341,90.9398 126.174,88.6065 126.5,85.5C 133.833,85.5 141.167,85.5 148.5,85.5 Z"/></g>
<g><path style="opacity:0.816" fill="#bca867" d="M 201.5,100.5 C 202.295,97.4496 203.295,94.4496 204.5,91.5C 204.137,90.8165 203.804,90.1499 203.5,89.5C 203.5,88.5 203.5,87.5 203.5,86.5C 209.176,86.3339 214.843,86.5006 220.5,87C 214,93.5 207.5,100 201,106.5C 201.135,104.575 201.302,102.575 201.5,100.5 Z"/></g>
<g><path style="opacity:0.814" fill="#a99559" d="M 223.5,85.5 C 219.767,90.7405 215.434,95.5738 210.5,100C 211.056,100.383 211.389,100.883 211.5,101.5C 210.167,104.5 208.833,107.5 207.5,110.5C 202.833,114.167 198.167,117.833 193.5,121.5C 195.796,114.269 198.462,107.269 201.5,100.5C 201.302,102.575 201.135,104.575 201,106.5C 207.5,100 214,93.5 220.5,87C 214.843,86.5006 209.176,86.3339 203.5,86.5C 203.5,87.5 203.5,88.5 203.5,89.5C 202.566,88.4324 202.232,87.099 202.5,85.5C 209.5,85.5 216.5,85.5 223.5,85.5 Z"/></g>
<g><path style="opacity:0.58" fill="#473e26" d="M 226.5,85.5 C 227.568,84.5655 228.901,84.2322 230.5,84.5C 230.795,86.7354 230.461,88.7354 229.5,90.5C 229.5,88.8333 229.5,87.1667 229.5,85.5C 228.5,85.5 227.5,85.5 226.5,85.5 Z"/></g>
<g><path style="opacity:0.815" fill="#b29a58" d="M 223.5,85.5 C 224.5,85.5 225.5,85.5 226.5,85.5C 227.5,85.5 228.5,85.5 229.5,85.5C 229.5,87.1667 229.5,88.8333 229.5,90.5C 228.929,91.9733 228.929,93.64 229.5,95.5C 225.767,100.74 221.434,105.574 216.5,110C 215.212,110.239 214.212,109.739 213.5,108.5C 212.434,106.299 211.767,103.965 211.5,101.5C 211.389,100.883 211.056,100.383 210.5,100C 215.434,95.5738 219.767,90.7405 223.5,85.5 Z"/></g>
<g><path style="opacity:0.969" fill="#b18727" d="M 62.5,85.5 C 62.634,87.2915 62.3007,88.9582 61.5,90.5C 57.0469,92.2263 52.7136,94.2263 48.5,96.5C 47.2928,95.8112 45.9594,95.6446 44.5,96C 46.5785,91.4651 45.7452,91.2985 42,95.5C 41.7049,93.2383 40.5383,91.2383 38.5,89.5C 37.8826,89.6107 37.3826,89.944 37,90.5C 36.5045,88.5273 36.3379,86.5273 36.5,84.5C 45.3494,84.1736 54.0161,84.507 62.5,85.5 Z"/></g>
<g><path style="opacity:0.814" fill="#aa9355" d="M 162.5,85.5 C 168.061,84.8024 173.227,85.8024 178,88.5C 181.641,96.9358 179.474,103.269 171.5,107.5C 173.36,108.325 175.026,109.325 176.5,110.5C 170.222,110.443 166.222,113.443 164.5,119.5C 163.314,116.66 161.314,114.494 158.5,113C 157.181,112.805 155.847,112.972 154.5,113.5C 155.23,111.994 155.563,110.66 155.5,109.5C 156.212,110.739 157.212,111.239 158.5,111C 164.667,104.833 170.833,98.6667 177,92.5C 177.667,91.5 177.667,90.5 177,89.5C 176,89.1667 175,88.8333 174,88.5C 170.667,91.8333 167.333,95.1667 164,98.5C 163.517,99.448 163.351,100.448 163.5,101.5C 162.5,101.5 161.5,101.5 160.5,101.5C 161.167,99.5 161.833,97.5 162.5,95.5C 161.29,95.0679 160.29,94.4013 159.5,93.5C 159.389,92.8826 159.056,92.3826 158.5,92C 160.167,90.3333 161.833,88.6667 163.5,87C 162.944,86.6174 162.611,86.1174 162.5,85.5 Z"/></g>
<g><path style="opacity:0.892" fill="#bfa258" d="M 162.5,95.5 C 162.67,94.1779 162.337,93.0113 161.5,92C 163.167,90.3333 164.833,88.6667 166.5,87C 168.579,86.1923 170.579,86.359 172.5,87.5C 169.85,90.6511 167.016,93.6511 164,96.5C 163.617,95.944 163.117,95.6107 162.5,95.5 Z"/></g>
<g><path style="opacity:0.893" fill="#b8984a" d="M 154.5,85.5 C 147.536,92.9649 140.369,100.298 133,107.5C 132.617,106.944 132.117,106.611 131.5,106.5C 131.5,105.833 131.5,105.167 131.5,104.5C 136.796,97.8687 142.463,91.5354 148.5,85.5C 150.741,85.0461 152.741,85.0461 154.5,85.5 Z"/></g>
<g><path style="opacity:0.89" fill="#c3a85f" d="M 155.5,109.5 C 156.793,107.704 158.293,106.037 160,104.5C 160.483,103.552 160.649,102.552 160.5,101.5C 161.5,101.5 162.5,101.5 163.5,101.5C 163.351,100.448 163.517,99.448 164,98.5C 167.333,95.1667 170.667,91.8333 174,88.5C 175,88.8333 176,89.1667 177,89.5C 177.667,90.5 177.667,91.5 177,92.5C 170.833,98.6667 164.667,104.833 158.5,111C 157.212,111.239 156.212,110.739 155.5,109.5 Z"/></g>
<g><path style="opacity:0.441" fill="#503d12" d="M 29.5,91.5 C 29.1872,95.0419 29.5206,98.3752 30.5,101.5C 30.1583,102.338 29.4916,102.672 28.5,102.5C 28.5,101.167 28.5,99.8333 28.5,98.5C 28.1984,95.9407 28.5318,93.6074 29.5,91.5 Z"/></g>
<g><path style="opacity:0.996" fill="#ae8428" d="M 38.5,89.5 C 40.5383,91.2383 41.7049,93.2383 42,95.5C 45.7452,91.2985 46.5785,91.4651 44.5,96C 45.9594,95.6446 47.2928,95.8112 48.5,96.5C 47.5213,98.1454 46.188,99.4787 44.5,100.5C 47.4803,102.473 49.4803,105.14 50.5,108.5C 45.438,112.559 41.1047,117.226 37.5,122.5C 35.2133,118.878 32.5466,115.545 29.5,112.5C 34.2713,108.231 38.938,103.731 43.5,99C 41.255,99.1953 39.4216,100.362 38,102.5C 36.4667,102.056 34.9667,101.723 33.5,101.5C 31.8144,102.857 30.1477,104.19 28.5,105.5C 27.1667,104.5 27.1667,103.5 28.5,102.5C 29.4916,102.672 30.1583,102.338 30.5,101.5C 33.4376,99.066 36.2709,96.3993 39,93.5C 39.5791,92.0715 39.4124,90.7382 38.5,89.5 Z"/></g>
<g><path style="opacity:0.129" fill="#281f0e" d="M 92.5,103.5 C 91.8333,103.5 91.1667,103.5 90.5,103.5C 91.1667,100.833 91.8333,100.833 92.5,103.5 Z"/></g>
<g><path style="opacity:0.953" fill="#c1942a" d="M 29.5,91.5 C 28.5318,93.6074 28.1984,95.9407 28.5,98.5C 22.5,104.167 16.5,109.833 10.5,115.5C 10.5,113.5 10.5,111.5 10.5,109.5C 12.6298,107.873 14.6298,106.04 16.5,104C 15.8333,103.667 15.1667,103.333 14.5,103C 18.8333,98.6667 23.1667,94.3333 27.5,90C 25.2177,88.9158 24.8843,87.4158 26.5,85.5C 28.8056,85.0074 31.139,84.6741 33.5,84.5C 33.8851,87.89 32.5517,90.2233 29.5,91.5 Z"/></g>
<g><path style="opacity:0.884" fill="#b08d3d" d="M 112.5,103.5 C 113.738,105.214 114.405,107.214 114.5,109.5C 114.286,111.144 114.62,112.644 115.5,114C 110.575,119.432 105.242,124.265 99.5,128.5C 97.5,126.833 95.5,125.167 93.5,123.5C 92.6971,122.577 92.5304,121.577 93,120.5C 99,114.5 105,108.5 111,102.5C 111.383,103.056 111.883,103.389 112.5,103.5 Z"/></g>
<g><path style="opacity:0.81" fill="#af9654" d="M 160.5,101.5 C 160.649,102.552 160.483,103.552 160,104.5C 158.293,106.037 156.793,107.704 155.5,109.5C 155.563,110.66 155.23,111.994 154.5,113.5C 153.292,114.234 151.959,114.567 150.5,114.5C 150.5,117.833 150.5,121.167 150.5,124.5C 149.679,121.359 149.179,118.025 149,114.5C 143.996,120.67 138.496,126.337 132.5,131.5C 132.5,129.833 132.5,128.167 132.5,126.5C 139.298,120.203 145.965,113.703 152.5,107C 151.584,106.722 150.918,106.222 150.5,105.5C 154.293,105.269 157.626,103.935 160.5,101.5 Z"/></g>
<g><path style="opacity:0.933" fill="#c3952b" d="M 28.5,98.5 C 28.5,99.8333 28.5,101.167 28.5,102.5C 27.1667,103.5 27.1667,104.5 28.5,105.5C 23.5364,110.965 18.3697,116.298 13,121.5C 11.513,120.747 11.3463,119.914 12.5,119C 11.9056,118.536 11.2389,118.369 10.5,118.5C 10.5,117.5 10.5,116.5 10.5,115.5C 16.5,109.833 22.5,104.167 28.5,98.5 Z"/></g>
<g><path style="opacity:0.814" fill="#ae9045" d="M 232.5,105.5 C 233.014,107.512 233.18,109.512 233,111.5C 228.5,116 224,120.5 219.5,125C 218.181,125.195 216.847,125.028 215.5,124.5C 214.697,123.577 214.53,122.577 215,121.5C 220.424,115.569 226.258,110.236 232.5,105.5 Z"/></g>
<g><path style="opacity:0.969" fill="#c5962b" d="M 29.5,112.5 C 29.5,112.833 29.5,113.167 29.5,113.5C 28.8333,113.5 28.5,113.833 28.5,114.5C 22.8686,119.63 17.3686,124.964 12,130.5C 11.3828,129.551 11.5494,128.718 12.5,128C 11.9056,127.536 11.2389,127.369 10.5,127.5C 10.5,126.833 10.5,126.167 10.5,125.5C 10.5,123.167 10.5,120.833 10.5,118.5C 11.2389,118.369 11.9056,118.536 12.5,119C 11.3463,119.914 11.513,120.747 13,121.5C 18.3697,116.298 23.5364,110.965 28.5,105.5C 30.1477,104.19 31.8144,102.857 33.5,101.5C 34.9667,101.723 36.4667,102.056 38,102.5C 39.4216,100.362 41.255,99.1953 43.5,99C 38.938,103.731 34.2713,108.231 29.5,112.5 Z"/></g>
<g><path style="opacity:1" fill="#b0852a" d="M 50.5,108.5 C 52.9236,111.008 54.5903,114.008 55.5,117.5C 55.6495,118.552 55.4828,119.552 55,120.5C 50.6667,124.833 46.3333,129.167 42,133.5C 41.7216,132.584 41.2216,131.918 40.5,131.5C 39.2655,128.67 38.2655,125.67 37.5,122.5C 41.1047,117.226 45.438,112.559 50.5,108.5 Z"/></g>
<g><path style="opacity:0.815" fill="#aa914f" d="M 229.5,95.5 C 231.072,98.2154 232.072,101.215 232.5,104.5C 232.5,104.833 232.5,105.167 232.5,105.5C 226.258,110.236 220.424,115.569 215,121.5C 214.53,122.577 214.697,123.577 215.5,124.5C 212.592,123.308 209.592,122.308 206.5,121.5C 205.416,121.685 204.416,122.018 203.5,122.5C 203.631,121.761 203.464,121.094 203,120.5C 199,124.5 195,128.5 191,132.5C 190.536,131.906 190.369,131.239 190.5,130.5C 191.304,127.421 192.304,124.421 193.5,121.5C 198.167,117.833 202.833,114.167 207.5,110.5C 209.396,111.481 211.396,112.481 213.5,113.5C 214.052,111.997 214.052,110.331 213.5,108.5C 214.212,109.739 215.212,110.239 216.5,110C 221.434,105.574 225.767,100.74 229.5,95.5 Z"/></g>
<g><path style="opacity:0.815" fill="#9b7f3a" d="M 232.5,104.5 C 234.125,108.303 235.458,112.303 236.5,116.5C 230.511,120.823 225.178,125.823 220.5,131.5C 219.283,128.933 217.616,126.6 215.5,124.5C 216.847,125.028 218.181,125.195 219.5,125C 224,120.5 228.5,116 233,111.5C 233.18,109.512 233.014,107.512 232.5,105.5C 232.5,105.167 232.5,104.833 232.5,104.5 Z"/></g>
<g><path style="opacity:0.808" fill="#ba9d52" d="M 150.5,105.5 C 150.918,106.222 151.584,106.722 152.5,107C 145.965,113.703 139.298,120.203 132.5,126.5C 132.5,123.833 132.5,121.167 132.5,118.5C 132.337,116.143 132.503,113.81 133,111.5C 138.333,106.167 143.667,100.833 149,95.5C 149.179,99.0252 149.679,102.359 150.5,105.5 Z"/></g>
<g><path style="opacity:0.81" fill="#b4a062" d="M 176.5,110.5 C 180.226,111.953 182.559,114.619 183.5,118.5C 182.833,118.167 182.167,117.833 181.5,117.5C 180.928,116.027 180.095,114.693 179,113.5C 176.167,116.333 173.333,119.167 170.5,122C 170.833,122.333 171.167,122.667 171.5,123C 169.229,125.782 166.563,127.949 163.5,129.5C 164.324,126.236 164.658,122.902 164.5,119.5C 166.222,113.443 170.222,110.443 176.5,110.5 Z"/></g>
<g><path style="opacity:0.892" fill="#c4af6c" d="M 181.5,117.5 C 173.833,124.5 166.5,131.833 159.5,139.5C 154.456,139.827 149.456,139.494 144.5,138.5C 146.043,135.61 148.376,133.943 151.5,133.5C 154.187,133.664 156.854,133.497 159.5,133C 161.324,132.34 162.657,131.173 163.5,129.5C 166.563,127.949 169.229,125.782 171.5,123C 171.167,122.667 170.833,122.333 170.5,122C 173.333,119.167 176.167,116.333 179,113.5C 180.095,114.693 180.928,116.027 181.5,117.5 Z"/></g>
<g><path style="opacity:0.996" fill="#bd8f2b" d="M 28.5,114.5 C 27.418,118.782 27.2514,122.782 28,126.5C 23.5,131 19,135.5 14.5,140C 12.6667,139.833 10.8333,139.667 9,139.5C 8.28281,140.044 7.78281,140.711 7.5,141.5C 7.16667,141.5 6.83333,141.5 6.5,141.5C 6.5,140.167 6.5,138.833 6.5,137.5C 8.97259,137.912 10.3059,136.912 10.5,134.5C 10.5,132.167 10.5,129.833 10.5,127.5C 11.2389,127.369 11.9056,127.536 12.5,128C 11.5494,128.718 11.3828,129.551 12,130.5C 17.3686,124.964 22.8686,119.63 28.5,114.5 Z"/></g>
<g><path style="opacity:0.894" fill="#a68334" d="M 108.5,90.5 C 109.833,94.8333 111.167,99.1667 112.5,103.5C 111.883,103.389 111.383,103.056 111,102.5C 105,108.5 99,114.5 93,120.5C 92.5304,121.577 92.6971,122.577 93.5,123.5C 90.5394,122.677 87.5394,122.01 84.5,121.5C 84.3893,120.883 84.056,120.383 83.5,120C 85.1667,118.333 86.8333,116.667 88.5,115C 91.0356,114.814 93.369,114.314 95.5,113.5C 94.4336,111.299 93.767,108.965 93.5,106.5C 99.2587,101.746 104.259,96.4124 108.5,90.5 Z"/></g>
<g><path style="opacity:0.814" fill="#a78639" d="M 236.5,116.5 C 236.5,116.833 236.5,117.167 236.5,117.5C 236.657,118.873 236.49,120.207 236,121.5C 230.271,127.397 224.438,133.064 218.5,138.5C 217.503,138.53 216.836,138.03 216.5,137C 218.438,135.569 219.771,133.735 220.5,131.5C 225.178,125.823 230.511,120.823 236.5,116.5 Z"/></g>
<g><path style="opacity:0.884" fill="#997527" d="M 55.5,117.5 C 58.7313,123.173 61.398,129.173 63.5,135.5C 62.8501,135.196 62.1835,134.863 61.5,134.5C 59.6841,135.815 58.0175,137.315 56.5,139C 65.8274,139.5 75.1607,139.666 84.5,139.5C 72.011,140.495 59.3443,140.829 46.5,140.5C 43.8333,140.5 41.1667,140.5 38.5,140.5C 38.4326,139.041 38.7659,137.708 39.5,136.5C 40.4511,135.081 40.7845,133.415 40.5,131.5C 41.2216,131.918 41.7216,132.584 42,133.5C 46.3333,129.167 50.6667,124.833 55,120.5C 55.4828,119.552 55.6495,118.552 55.5,117.5 Z"/></g>
<g><path style="opacity:0.813" fill="#b49d5b" d="M 150.5,124.5 C 150.508,127.545 150.841,130.545 151.5,133.5C 148.376,133.943 146.043,135.61 144.5,138.5C 149.456,139.494 154.456,139.827 159.5,139.5C 162.167,139.5 164.833,139.5 167.5,139.5C 155.345,140.495 143.011,140.829 130.5,140.5C 129.833,140.5 129.167,140.5 128.5,140.5C 128.365,138.446 129.032,136.779 130.5,135.5C 132.176,134.817 132.843,133.483 132.5,131.5C 138.496,126.337 143.996,120.67 149,114.5C 149.179,118.025 149.679,121.359 150.5,124.5 Z"/></g>
<g><path style="opacity:0.819" fill="#9e8648" d="M 203.5,122.5 C 202.293,126.786 201.293,131.12 200.5,135.5C 201.833,135.5 203.167,135.5 204.5,135.5C 204.5,136.833 204.5,138.167 204.5,139.5C 197.5,139.5 190.5,139.5 183.5,139.5C 183.5,138.167 183.5,136.833 183.5,135.5C 187.268,135.719 189.602,134.053 190.5,130.5C 190.369,131.239 190.536,131.906 191,132.5C 195,128.5 199,124.5 203,120.5C 203.464,121.094 203.631,121.761 203.5,122.5 Z"/></g>
<g><path style="opacity:0.81" fill="#ad9048" d="M 114.5,109.5 C 118.064,117.517 121.064,125.851 123.5,134.5C 125.527,136.674 127.86,137.008 130.5,135.5C 129.032,136.779 128.365,138.446 128.5,140.5C 118.5,140.5 108.5,140.5 98.5,140.5C 98.5,139.5 98.5,138.5 98.5,137.5C 100.484,137.516 101.484,136.516 101.5,134.5C 101.023,132.403 100.357,130.403 99.5,128.5C 105.242,124.265 110.575,119.432 115.5,114C 114.62,112.644 114.286,111.144 114.5,109.5 Z"/></g>
<g><path style="opacity:0.378" fill="#5c4e2b" d="M 131.5,118.5 C 131.833,118.5 132.167,118.5 132.5,118.5C 132.5,121.167 132.5,123.833 132.5,126.5C 132.5,128.167 132.5,129.833 132.5,131.5C 132.843,133.483 132.176,134.817 130.5,135.5C 131.452,129.925 131.786,124.259 131.5,118.5 Z"/></g>
<g><path style="opacity:0.819" fill="#93814d" d="M 183.5,119.5 C 185.698,126.054 184.364,131.887 179.5,137C 177.35,138.411 175.016,139.245 172.5,139.5C 175.396,135.095 178.896,131.095 183,127.5C 183.497,124.854 183.664,122.187 183.5,119.5 Z"/></g>
<g><path style="opacity:0.812" fill="#a07d30" d="M 236.5,117.5 C 238.072,120.215 239.072,123.215 239.5,126.5C 241.388,132.948 239.055,136.948 232.5,138.5C 227.833,138.5 223.167,138.5 218.5,138.5C 224.438,133.064 230.271,127.397 236,121.5C 236.49,120.207 236.657,118.873 236.5,117.5 Z"/></g>
<g><path style="opacity:0.82" fill="#bfab6a" d="M 181.5,117.5 C 182.167,117.833 182.833,118.167 183.5,118.5C 183.5,118.833 183.5,119.167 183.5,119.5C 183.664,122.187 183.497,124.854 183,127.5C 178.896,131.095 175.396,135.095 172.5,139.5C 170.833,139.5 169.167,139.5 167.5,139.5C 164.833,139.5 162.167,139.5 159.5,139.5C 166.5,131.833 173.833,124.5 181.5,117.5 Z"/></g>
<g><path style="opacity:0.894" fill="#ab8735" d="M 83.5,124.5 C 82.6745,128.136 82.0078,131.803 81.5,135.5C 85.0348,135.337 86.0348,136.67 84.5,139.5C 75.1607,139.666 65.8274,139.5 56.5,139C 58.0175,137.315 59.6841,135.815 61.5,134.5C 62.1835,134.863 62.8501,135.196 63.5,135.5C 64.391,136.11 65.391,136.443 66.5,136.5C 71.2299,132.286 76.2299,127.452 81.5,122C 83.0613,121.812 83.728,122.645 83.5,124.5 Z"/></g>
<g><path style="opacity:0.814" fill="#7d6021" d="M 239.5,126.5 C 240.482,128.406 241.482,130.406 242.5,132.5C 243.736,133.246 245.07,133.579 246.5,133.5C 246.5,135.167 246.5,136.833 246.5,138.5C 241.833,138.5 237.167,138.5 232.5,138.5C 239.055,136.948 241.388,132.948 239.5,126.5 Z"/></g>
<g><path style="opacity:1" fill="#b3882a" d="M 29.5,113.5 C 29.2363,120.89 29.5696,128.223 30.5,135.5C 30.8586,137.485 31.692,138.151 33,137.5C 33.4828,138.448 33.6495,139.448 33.5,140.5C 27.642,140.178 21.9753,140.511 16.5,141.5C 13.5,141.5 10.5,141.5 7.5,141.5C 7.78281,140.711 8.28281,140.044 9,139.5C 10.8333,139.667 12.6667,139.833 14.5,140C 19,135.5 23.5,131 28,126.5C 27.2514,122.782 27.418,118.782 28.5,114.5C 28.5,113.833 28.8333,113.5 29.5,113.5 Z"/></g>
<g><path style="opacity:0.42" fill="#4f3c13" d="M 10.5,134.5 C 10.3059,136.912 8.97259,137.912 6.5,137.5C 6.5,138.833 6.5,140.167 6.5,141.5C 5.54885,140.081 5.21552,138.415 5.5,136.5C 7.5138,136.608 9.18047,135.942 10.5,134.5 Z"/></g>
<g><path style="opacity:0.431" fill="#5c4616" d="M 30.5,135.5 C 33.6973,136.112 35.0306,138.112 34.5,141.5C 28.5,141.5 22.5,141.5 16.5,141.5C 21.9753,140.511 27.642,140.178 33.5,140.5C 33.6495,139.448 33.4828,138.448 33,137.5C 31.692,138.151 30.8586,137.485 30.5,135.5 Z"/></g>
<g><path style="opacity:0.202" fill="#2b210d" d="M 39.5,136.5 C 38.7659,137.708 38.4326,139.041 38.5,140.5C 41.1667,140.5 43.8333,140.5 46.5,140.5C 43.7131,141.477 40.7131,141.81 37.5,141.5C 37.0773,139.219 37.744,137.552 39.5,136.5 Z"/></g>
<g><path style="opacity:0.201" fill="#372f19" d="M 98.5,137.5 C 98.5,138.5 98.5,139.5 98.5,140.5C 108.5,140.5 118.5,140.5 128.5,140.5C 129.167,140.5 129.833,140.5 130.5,140.5C 119.679,141.495 108.679,141.828 97.5,141.5C 97.2322,139.901 97.5655,138.568 98.5,137.5 Z"/></g>
</svg>
