<svg width="593" height="402" xmlns="http://www.w3.org/2000/svg" xmlns:xlink="http://www.w3.org/1999/xlink" xml:space="preserve" version="1.1">

 <g>
  <title>Layer 1</title>
  <g display="none" class="st0" id="Слой_1">
   <image x="-3.2" y="-247.19999" id="svg_1" transform="matrix(0.75 0 0 0.75 325.978 373.716)" xlink:href="videnska-kava-logo.png" height="50" width="79"/>
  </g>
  <g id="Слой_2">
   <g id="svg_2">
    <path id="svg_3" fill="#FDFDFC" d="m220.9,305.30001c-10.9,-8.8 -21.1,-18.5 -30.4,-29.2c-9.4,-10.6 -17.8,-22.1 -25.2,-34.5c-3.6,-6.2 -7,-12.6 -10,-19.3c-3,-6.6 -5.5,-13.6 -7.6,-20.7c-2.1,-7.1 -3.7,-14.4 -4.6,-22c-0.9,-7.5 -1.2,-15.2 -0.5,-23c0.6,-7.7 2.1,-15.5 4.6,-23.1c2.5,-7.6 6.1,-14.9 10.5,-21.6c4.4,-6.7 9.6,-12.8 15.4,-18.2c5.8,-5.4 12,-10.1 18.4,-14.2c6.4,-4.2 13.1,-7.7 19.9,-10.8c6.8,-3.1 13.7,-5.9 20.6,-8.3c13.9,-4.8 28,-8.3 41.9,-11.3c7,-1.5 13.7,-2.8 21,-4.1c1.8,-0.3 3.6,-0.6 5.4,-0.9l5.4,-0.8c1.8,-0.2 3.6,-0.4 5.4,-0.7c1.8,-0.2 3.6,-0.5 5.4,-0.6c14.6,-1.3 29.2,-1.6 43.7,-0.7c14.5,0.9 28.7,2.7 42.4,4.7c6.9,1 13.7,2 20.4,2.8c6.7,0.9 13.4,1.6 20,2c6.6,0.4 13.2,0.6 19.7,0.5c6.6,-0.2 13.1,-0.8 19.6,-1.7c6.5,-0.9 13,-2.3 19.5,-3.8c6.4,-1.7 12.9,-3.5 19.2,-5.9c12.7,-4.5 25.1,-10.2 37,-16.9c11.9,-6.7 23.4,-14.5 34.6,-23c-17.8,21.6 -40.3,39.9 -66,52.9c-6.4,3.3 -13.1,6.1 -19.8,8.8c-3.4,1.2 -6.8,2.5 -10.3,3.5c-1.7,0.5 -3.5,1.1 -5.3,1.6l-5.3,1.4c-7.1,1.8 -14.4,3 -21.7,3.9c-7.3,0.8 -14.7,1.3 -21.9,1.3c-7.3,0.1 -14.5,-0.2 -21.6,-0.6c-7.1,-0.4 -14.1,-1.1 -21.1,-1.6c-13.8,-1.1 -27.3,-2.4 -40.7,-2.6c-6.7,-0.1 -13.3,-0.1 -19.9,0.2c-3.3,0.2 -6.6,0.3 -9.9,0.6c-3.3,0.2 -6.6,0.6 -9.9,0.9c-3.3,0.4 -6.6,0.8 -9.8,1.2l-4.9,0.8c-1.6,0.3 -3.3,0.5 -4.9,0.8c-6.4,1.2 -13.4,2.6 -20,4c-13.3,2.7 -26.3,5.9 -38.8,10c-12.5,4 -24.4,9 -35.2,15.3c-10.8,6.3 -20.2,14.2 -27.3,23.6c-3.5,4.7 -6.4,9.9 -8.7,15.3c-2.3,5.5 -3.9,11.3 -4.8,17.4c-0.9,6.1 -1.3,12.3 -1.1,18.7c0.2,6.3 1,12.8 2.1,19.2c2.3,12.8 6.5,25.6 11.8,38c2.6,6.2 5.6,12.3 8.8,18.3c3.1,6.1 6.6,11.9 10.2,17.8c7.6,12.3 15.8,23.6 24.3,34.6z" class="st1"/>
   </g>
   <g id="svg_4">
    <path id="svg_5" fill="#FDFDFC" d="m218.9,297.30001c-3.6,-4.3 -6.9,-9 -9.9,-13.8c-3,-4.8 -5.9,-9.7 -8.4,-14.9c-5.2,-10.2 -9.3,-21.1 -12.2,-32.5c-2.8,-11.4 -4.2,-23.4 -3.5,-35.7c0.4,-6.1 1.4,-12.3 2.9,-18.3c1.6,-6 3.7,-12 6.5,-17.7c1.5,-2.8 2.9,-5.7 4.6,-8.3l1.3,-2c0.4,-0.7 0.8,-1.4 1.3,-2l2.8,-3.9c0.9,-1.3 2,-2.5 3,-3.7l1.5,-1.8l1.6,-1.7c1.1,-1.1 2.2,-2.3 3.3,-3.4l3.5,-3.2c4.7,-4.1 9.7,-7.9 14.8,-11.3c5.1,-3.3 10.3,-6.3 15.6,-9c5.2,-2.7 10.5,-5.2 15.7,-7.5c5,-2.4 10.6,-4.6 16.1,-6.8c11.1,-4.2 22.6,-7.8 34.3,-10.1c1.5,-0.4 2.9,-0.6 4.4,-0.8l4.4,-0.7c2.9,-0.5 5.9,-0.8 8.8,-1.2l4.4,-0.5l4.4,-0.3c2.9,-0.2 5.9,-0.5 8.7,-0.6c11.6,-0.6 22.9,-0.5 33.8,-0.7c10.9,-0.2 21.6,-0.7 32.2,-1.7l7.9,-0.9l7.9,-1.2c5.3,-0.7 10.5,-1.8 15.7,-2.9c20.8,-4.6 41.3,-11.8 61.1,-20.9c9.9,-4.6 19.7,-9.7 29.3,-15.1c9.7,-5.4 19.1,-11.4 28.7,-17.4c-14.9,16.9 -32,32 -51,44.9c-19,12.8 -39.9,23.3 -62.1,30.5c-5.6,1.7 -11.2,3.5 -16.9,4.8c-2.8,0.7 -5.7,1.4 -8.6,2l-8.6,1.6c-11.5,2 -23.2,3.1 -34.5,3.8c-11.4,0.7 -22.5,1 -33.2,1.8c-10.7,0.7 -21.1,2 -31.2,4l-7.6,1.6c-2.5,0.6 -5,1.4 -7.5,2c-1.2,0.4 -2.5,0.6 -3.7,1l-3.7,1.2l-3.7,1.2c-1.2,0.4 -2.5,0.8 -3.7,1.3c-4.9,1.9 -9.7,3.7 -14.9,5.9c-5.1,2.1 -10,4.2 -14.8,6.4c-4.8,2.2 -9.4,4.5 -13.8,7c-4.4,2.5 -8.5,5.2 -12.4,8.2c-3.9,2.9 -7.4,6.3 -10.7,9.8l-2.4,2.7c-0.4,0.4 -0.8,0.9 -1.1,1.4l-1.1,1.4c-1.5,1.9 -2.7,4 -4.1,6c-2.4,4.2 -4.7,8.5 -6.4,13.1c-1.7,4.6 -3,9.4 -4.1,14.4c-1,5 -1.5,10.1 -1.7,15.3c-0.3,5.2 -0.1,10.5 0.3,15.8c0.8,10.6 2.9,21.3 5.7,31.9c3,10.6 6.6,21.1 11,31.5z" class="st1"/>
   </g>
   <g id="svg_6">
    <path id="svg_7" fill="#FDFDFC" d="m88.3,395.00001c0.4,-6.9 0.2,-14.1 -0.5,-21.2c-0.6,-7.1 -1.8,-14.3 -3.4,-21.3l-1.3,-5.3l-1.5,-5.2c-0.5,-1.8 -1.1,-3.4 -1.7,-5.2l-0.9,-2.6l-0.4,-1.3l-0.5,-1.3l-2.1,-5c-0.3,-0.9 -0.7,-1.7 -1.1,-2.5l-1.2,-2.5c-1.5,-3.3 -3.3,-6.5 -5.1,-9.7c-0.8,-1.6 -1.9,-3.1 -2.9,-4.7c-1,-1.5 -2,-3.1 -3,-4.6l-3.3,-4.4c-0.5,-0.8 -1.1,-1.5 -1.7,-2.2l-1.8,-2.1c-4.8,-5.7 -10,-10.9 -15.8,-15.7c-5.8,-4.8 -12.1,-9 -18.8,-12.5c-3.3,-1.8 -6.8,-3.4 -10.4,-4.8c-3.6,-1.4 -7.2,-2.7 -10.9,-3.7c3.8,0.4 7.7,1.1 11.5,2c3.8,0.9 7.5,2 11.2,3.2c7.4,2.5 14.6,5.8 21.5,9.9c6.9,4 13.3,8.7 19.4,14l2.3,2c0.8,0.7 1.5,1.3 2.2,2l4.3,4.2c1.4,1.4 2.7,3 4.1,4.5c1.3,1.5 2.8,3 4,4.6c2.5,3.2 5.1,6.3 7.3,9.8l1.7,2.5c0.6,0.8 1.2,1.7 1.7,2.6l3.2,5.2l0.8,1.3l0.7,1.3l1.4,2.7c1,1.8 2,3.6 2.8,5.5l2.6,5.6l2.4,5.7c3,7.6 5.6,15.5 7.7,23.5c2,8 3.6,16.2 4.5,24.7l-29,1z" class="st1"/>
   </g>
   <g id="svg_8">
    <path id="svg_9" fill="#FDFDFC" d="m330.5,402.00001c1.2,-16.2 4.8,-31.9 10.4,-46.6c2.8,-7.4 6.2,-14.5 9.9,-21.3c3.8,-6.8 8.1,-13.3 12.6,-19.4c4.6,-6.2 9.6,-12 14.8,-17.5c5.2,-5.5 10.8,-10.6 16.5,-15.4c11.5,-9.6 24,-17.8 37,-24.7c-11.7,8.9 -22.5,18.9 -31.9,29.9c-4.7,5.5 -9.2,11.2 -13.2,17.1c-4,5.9 -7.7,12 -10.9,18.3c-3.2,6.3 -6.1,12.7 -8.4,19.3c-2.3,6.6 -4.2,13.2 -5.6,19.9c-2.8,13.4 -3.5,27.1 -2.3,40.3l-28.9,0.1z" class="st1"/>
   </g>
   <g id="svg_10">
    <path id="svg_11" fill="#FDFDFC" d="m1,257.10001c9.2,1.5 18.2,3.2 27.3,4.8l13.5,2.3c4.5,0.7 9,1.5 13.5,2.2c18,2.8 35.9,5.3 53.8,7.2c17.9,2 35.8,3.5 53.7,4.5c2.2,0.1 4.5,0.3 6.7,0.4l6.7,0.3c4.5,0.2 9,0.5 13.4,0.5l13.4,0.4l13.4,0.1c17.9,0 35.8,-0.4 53.8,-1.3c17.9,-0.9 35.8,-2.4 53.8,-4.2c17.9,-1.8 35.9,-4.2 53.9,-6.8c4.5,-0.6 9,-1.4 13.5,-2.1l13.6,-2.2c9.1,-1.5 18.1,-3.1 27.3,-4.5c-8.1,4.5 -16.5,8.5 -25,12.3c-4.2,1.9 -8.5,3.6 -12.9,5.4c-2.2,0.9 -4.3,1.7 -6.5,2.5c-2.2,0.8 -4.3,1.7 -6.5,2.4c-17.5,6.3 -35.5,11.4 -53.7,15.5c-18.2,4.1 -36.7,7.1 -55.3,9.1c-18.6,2 -37.3,2.9 -56,2.8l-14,-0.2c-4.7,-0.2 -9.3,-0.4 -14,-0.7c-4.7,-0.2 -9.3,-0.6 -14,-1l-7,-0.6c-2.3,-0.2 -4.6,-0.5 -7,-0.8c-4.6,-0.6 -9.3,-1 -13.9,-1.8c-4.6,-0.7 -9.2,-1.4 -13.9,-2.2l-13.8,-2.6c-4.6,-0.9 -9.1,-2 -13.7,-3c-18.2,-4.3 -36.1,-9.5 -53.6,-15.9c-4.4,-1.6 -8.7,-3.3 -13,-5c-4.3,-1.8 -8.6,-3.5 -12.8,-5.5c-8.2,-3.6 -16.6,-7.7 -24.7,-12.3z" class="st1"/>
   </g>
  </g>
 </g>
</svg>