<?xml version="1.0" encoding="utf-8"?>
<!-- Generator: Adobe Illustrator 25.0.0, SVG Export Plug-In . SVG Version: 6.00 Build 0)  -->
<svg version="1.1" xmlns="http://www.w3.org/2000/svg" xmlns:xlink="http://www.w3.org/1999/xlink" x="0px" y="0px"
	 viewBox="0 0 595.3 841.9" style="enable-background:new 0 0 595.3 841.9;" xml:space="preserve">
<style type="text/css">
	.st0{display:none;}
	.st1{fill:#1D1D1B;}
	.st2{fill:none;stroke:#FFFFFF;stroke-width:29;}
</style>
<g id="Слой_1" class="st0">
	
		<image style="display:inline;overflow:visible;" width="79" height="50" xlink:href="videnska-kava-logo.png"  transform="matrix(0.75 0 0 0.75 325.9783 373.7159)">
	</image>
</g>
<g id="Слой_2">
	<g>
		<path class="st1" d="M234.7,463c-9.3-7.1-17.9-15.1-25.9-23.9c-8-8.7-15.2-18.3-21.5-28.6c-3.1-5.2-6-10.5-8.6-16.1
			c-2.6-5.6-4.7-11.4-6.6-17.3c-1.8-6-3.2-12.2-4-18.5c-0.8-6.4-1.1-12.9-0.6-19.5c0.5-6.6,1.7-13.3,3.8-19.7
			c2.1-6.5,5.2-12.7,8.9-18.5c3.8-5.7,8.2-11,13.1-15.6c4.9-4.6,10.2-8.6,15.6-12.1c5.4-3.6,11.1-6.6,16.9-9.2
			c5.7-2.7,11.5-5,17.4-7c11.7-4.1,23.5-7,35.1-9.5c5.9-1.2,11.4-2.3,17.5-3.4c3-0.6,6.1-0.9,9.1-1.4c3-0.4,6.1-0.8,9.2-1
			c12.2-1,24.6-1.3,36.7-0.5c12.1,0.8,24,2.3,35.5,4.1c5.7,0.9,11.4,1.7,16.9,2.4c5.6,0.8,11.1,1.4,16.5,1.8
			c5.5,0.4,10.9,0.6,16.3,0.5c5.4-0.1,10.8-0.6,16.2-1.2c5.4-0.7,10.7-1.8,16.1-3c5.3-1.3,10.7-2.8,16-4.6
			c10.6-3.5,20.9-8.1,31-13.5c10-5.4,19.7-11.7,29.2-18.6c-14.5,18.4-33.1,34-54.5,45.2c-5.3,2.8-10.9,5.2-16.5,7.6
			c-5.7,2.2-11.5,4.1-17.5,5.7c-6,1.5-12.1,2.7-18.2,3.5c-6.2,0.8-12.3,1.2-18.5,1.3c-6.1,0.1-12.2-0.1-18.2-0.4
			c-6-0.3-11.8-0.8-17.6-1.3c-11.5-0.9-22.7-1.9-33.7-2c-5.5-0.1-11,0-16.4,0.2c-2.7,0.1-5.4,0.3-8.1,0.5c-2.7,0.2-5.4,0.5-8.1,0.8
			c-2.7,0.3-5.4,0.7-8.1,1c-2.7,0.5-5.4,0.8-8.1,1.4c-5.2,0.9-11.1,2.2-16.5,3.3c-11,2.3-21.8,4.9-32,8.2
			c-10.3,3.2-20.1,7.4-28.9,12.5c-8.8,5.1-16.4,11.4-22.2,18.9c-2.9,3.8-5.2,7.9-7.1,12.3c-1.9,4.4-3.2,9.1-4.1,14
			c-0.8,4.9-1.2,10-1.1,15.2c0.1,5.2,0.7,10.5,1.6,15.7c1.8,10.6,5.1,21.1,9.3,31.5c2.1,5.2,4.5,10.3,7,15.3
			c2.5,5.1,5.4,10,8.3,14.9C221.1,444.1,227.8,453.6,234.7,463z"/>
	</g>
	<g>
		<path class="st1" d="M233,456.3c-6.2-7.1-11.4-15.1-15.9-23.6c-4.5-8.5-8.2-17.5-10.7-27.1c-2.5-9.6-3.8-19.7-3.3-30.1
			c0.3-5.2,1-10.4,2.3-15.6c1.3-5.2,3.1-10.2,5.4-15.1c2.4-4.8,5.2-9.5,8.5-13.9c3.3-4.3,7-8.3,11-11.9c4-3.5,8.2-6.8,12.6-9.6
			c4.3-2.8,8.7-5.4,13.1-7.7c4.4-2.3,8.8-4.4,13.1-6.4c4.2-2,8.9-3.9,13.5-5.8c9.4-3.5,19-6.6,29-8.5c1.2-0.3,2.5-0.5,3.7-0.7
			l3.7-0.6c2.5-0.5,5-0.7,7.4-1l3.7-0.4l3.7-0.3c2.5-0.2,4.9-0.4,7.3-0.5c9.7-0.5,19.1-0.4,28.2-0.5c9.1-0.1,17.9-0.4,26.6-1.2
			l6.5-0.7l6.5-0.9c4.4-0.5,8.7-1.5,13-2.3c17.3-3.6,34.2-9.3,50.9-16.6c8.3-3.7,16.5-7.8,24.6-12.1c8.2-4.4,16.1-9.2,24.3-13.9
			c-12,14.5-26.2,27.4-41.9,38.5c-15.8,11-33.2,19.9-51.8,26.2c-4.7,1.5-9.4,3-14.2,4.1c-2.4,0.6-4.8,1.2-7.2,1.7l-7.3,1.4
			c-9.7,1.7-19.5,2.7-29,3.4c-9.5,0.6-18.7,0.9-27.6,1.6c-2.2,0.1-4.4,0.4-6.6,0.5L333,307l-3.2,0.4c-2.1,0.3-4.3,0.5-6.4,0.9
			c-2.1,0.4-4.2,0.7-6.3,1.1l-6.2,1.3c-2.1,0.5-4.1,1.1-6.2,1.6c-1,0.3-2.1,0.5-3.1,0.8l-3,1l-3,1c-1,0.3-2,0.6-3,1
			c-4.1,1.6-8,3-12.3,4.8c-4.2,1.7-8.3,3.5-12.2,5.2c-3.9,1.8-7.7,3.7-11.3,5.7c-3.6,2-7,4.2-10.1,6.6c-3.2,2.4-6,5-8.7,7.8
			l-1.9,2.2c-0.7,0.7-1.2,1.5-1.8,2.3c-1.2,1.5-2.2,3.2-3.4,4.8c-2,3.3-3.9,6.8-5.4,10.6c-1.4,3.7-2.6,7.6-3.5,11.7
			c-0.9,4-1.3,8.2-1.6,12.5c-0.3,4.3-0.2,8.6,0.1,13c0.5,8.8,2,17.7,4.2,26.6C226.7,438.7,229.6,447.5,233,456.3z"/>
	</g>
	<g>
		<path class="st1" d="M121.8,537.8c0.4-5.6,0.4-11.5-0.1-17.4c-0.4-5.9-1.3-11.7-2.5-17.6c-1.2-5.8-2.9-11.5-4.9-17.2l-1.6-4.2
			c-0.5-1.4-1.2-2.7-1.8-4.1c-1.2-2.8-2.7-5.4-4.1-8.1c-0.7-1.4-1.5-2.6-2.3-3.9c-0.8-1.3-1.6-2.6-2.4-3.9l-2.7-3.7
			c-0.4-0.6-0.9-1.2-1.4-1.8l-1.4-1.8c-3.9-4.7-8.1-9.2-12.9-13.2c-4.7-4-9.9-7.6-15.4-10.6c-2.8-1.5-5.6-2.9-8.6-4.2
			c-2.9-1.2-6-2.3-9-3.2c3.2,0.3,6.4,0.8,9.6,1.5c3.2,0.7,6.3,1.5,9.4,2.6c6.2,2,12.3,4.7,18.1,8c5.8,3.3,11.3,7.2,16.5,11.5
			l1.9,1.6c0.7,0.5,1.3,1.1,1.9,1.7l3.7,3.5c1.2,1.2,2.3,2.5,3.5,3.7c1.1,1.3,2.4,2.5,3.4,3.8c2.1,2.7,4.4,5.3,6.3,8.1
			c1,1.4,2,2.8,2.9,4.2l2.7,4.4c3.5,5.9,6.7,12.1,9.3,18.5c2.7,6.4,4.9,13,6.7,19.8c1.8,6.8,3.2,13.7,4,20.8L121.8,537.8z"/>
	</g>
	<g>
		<path class="st1" d="M323.6,543.6c1.2-13.7,4.4-27,9.4-39.4c2.5-6.2,5.4-12.1,8.6-17.8c3.3-5.7,6.9-11.1,10.8-16.2
			c3.9-5.1,8.2-9.9,12.6-14.5c4.5-4.5,9.2-8.7,14.1-12.7c9.8-7.9,20.3-14.6,31.3-20.2c-9.7,7.6-18.5,16.1-26.2,25.3
			c-3.8,4.6-7.5,9.4-10.7,14.4c-3.2,5-6.2,10.1-8.8,15.3c-2.5,5.3-4.8,10.6-6.6,16c-1.8,5.4-3.2,11-4.3,16.5
			c-2.1,11.1-2.5,22.3-1.2,33L323.6,543.6z"/>
	</g>
	<g>
		<path class="st1" d="M51.5,422.9c7.7,1,15.3,2.2,22.9,3.3l11.3,1.7l11.3,1.6c15,2,30,3.9,44.9,5.3c14.9,1.5,29.8,2.6,44.7,3.4
			l5.6,0.3l5.6,0.2c3.7,0.1,7.4,0.4,11.1,0.4l11.1,0.3l11.1,0.1c14.9,0,29.7-0.3,44.6-0.9c14.9-0.7,29.7-1.8,44.7-3.1
			c14.9-1.3,29.9-3,44.9-4.9c7.5-0.9,15.1-2,22.7-3c7.6-1.1,15.2-2.2,22.9-3.1c-6.7,4-13.6,7.6-20.6,10.9c-3.5,1.7-7.1,3.2-10.6,4.8
			c-1.8,0.8-3.6,1.5-5.4,2.2c-1.8,0.7-3.6,1.5-5.4,2.1c-14.6,5.5-29.5,10-44.7,13.7c-15.2,3.6-30.6,6.3-46.2,8
			c-15.6,1.7-31.2,2.5-46.9,2.5l-11.7-0.2c-3.9-0.2-7.8-0.4-11.7-0.6c-3.9-0.2-7.8-0.5-11.7-0.9l-5.8-0.5c-1.9-0.2-3.9-0.5-5.8-0.7
			c-7.8-0.9-15.5-2.1-23.2-3.4l-11.5-2.3c-3.8-0.8-7.6-1.7-11.4-2.6c-15.2-3.8-30.1-8.3-44.6-14c-3.6-1.4-7.2-2.9-10.8-4.4
			c-3.6-1.6-7.1-3.1-10.6-4.8C65.1,430.5,58.2,426.9,51.5,422.9z"/>
	</g>
	<line class="st2" x1="87.6" y1="549.8" x2="361.5" y2="549.8"/>
</g>
</svg>
